<?xml version="1.0" encoding="utf-8"?>
<!-- Generator: Adobe Illustrator 19.0.0, SVG Export Plug-In . SVG Version: 6.00 Build 0)  -->
<svg version="1.1" id="Layer_1" xmlns="http://www.w3.org/2000/svg" xmlns:xlink="http://www.w3.org/1999/xlink" x="0px" y="0px"
	 viewBox="0 0 300 300" style="enable-background:new 0 0 300 300;" xml:space="preserve">
<style type="text/css">
	.st0{fill:#D30088;stroke:#D30024;stroke-width:4;stroke-miterlimit:10;}
</style>
<g id="XMLID_184_">
	<path id="XMLID_193_" class="st0" d="M73.8,189.8L73.8,189.8c-7,0-12.7-5.7-12.7-12.7V62.3c0-7,5.7-12.7,12.7-12.7h0
		c7,0,12.7,5.7,12.7,12.7v114.8C86.5,184.1,80.8,189.8,73.8,189.8z"/>
	<path id="XMLID_192_" class="st0" d="M99.2,222.9L99.2,222.9c-7,0-12.7-5.7-12.7-12.7V44.1c0-7,5.7-12.7,12.7-12.7h0
		c7,0,12.7,5.7,12.7,12.7v166.1C111.9,217.1,106.2,222.9,99.2,222.9z"/>
	<path id="XMLID_191_" class="st0" d="M124.6,247.6L124.6,247.6c-7,0-12.7-5.7-12.7-12.7V53.1c0-7,5.7-12.7,12.7-12.7h0
		c7,0,12.7,5.7,12.7,12.7v181.8C137.3,241.9,131.6,247.6,124.6,247.6z"/>
	<path id="XMLID_190_" class="st0" d="M150,268.6L150,268.6c-7,0-12.7-5.7-12.7-12.7V92.8c0-7,5.7-12.7,12.7-12.7h0
		c7,0,12.7,5.7,12.7,12.7v163.1C162.7,262.9,157,268.6,150,268.6z"/>
	<path id="XMLID_189_" class="st0" d="M200.8,222.9L200.8,222.9c-7,0-12.7-5.7-12.7-12.7V44.1c0-7,5.7-12.7,12.7-12.7h0
		c7,0,12.7,5.7,12.7,12.7v166.1C213.5,217.1,207.8,222.9,200.8,222.9z"/>
	<path id="XMLID_188_" class="st0" d="M175.4,247.6L175.4,247.6c-7,0-12.7-5.7-12.7-12.7V53.1c0-7,5.7-12.7,12.7-12.7h0
		c7,0,12.7,5.7,12.7,12.7v181.8C188.1,241.9,182.4,247.6,175.4,247.6z"/>
	<path id="XMLID_187_" class="st0" d="M226.2,189.8L226.2,189.8c-7,0-12.7-5.7-12.7-12.7V62.3c0-7,5.7-12.7,12.7-12.7h0
		c7,0,12.7,5.7,12.7,12.7v114.8C238.9,184.1,233.2,189.8,226.2,189.8z"/>
	<path id="XMLID_186_" class="st0" d="M251.6,156.5L251.6,156.5c-7,0-12.7-5.7-12.7-12.7v-51c0-7,5.7-12.7,12.7-12.7h0
		c7,0,12.7,5.7,12.7,12.7v51C264.3,150.8,258.6,156.5,251.6,156.5z"/>
	<path id="XMLID_185_" class="st0" d="M48.4,157.9L48.4,157.9c-7,0-12.7-5.7-12.7-12.7v-51c0-7,5.7-12.7,12.7-12.7h0
		c7,0,12.7,5.7,12.7,12.7v51C61.1,152.2,55.4,157.9,48.4,157.9z"/>
</g>
</svg>
