<?xml version="1.0" encoding="utf-8"?>
<!-- Generator: Adobe Illustrator 19.0.0, SVG Export Plug-In . SVG Version: 6.00 Build 0)  -->
<svg version="1.1" id="Layer_1" xmlns="http://www.w3.org/2000/svg" xmlns:xlink="http://www.w3.org/1999/xlink" x="0px" y="0px"
	 viewBox="0 0 300 300" style="enable-background:new 0 0 300 300;" xml:space="preserve">
<style type="text/css">
	.st0{fill:none;stroke:#D30024;stroke-width:2;stroke-miterlimit:10;}
</style>
<g id="XMLID_516_">
	<path id="XMLID_533_" class="st0" d="M72.8,283L72.8,283c-7,0-12.7-5.7-12.7-12.7v-45.2c0-7,5.7-12.7,12.7-12.7h0
		c7,0,12.7,5.7,12.7,12.7v45.2C85.5,277.3,79.8,283,72.8,283z"/>
	<path id="XMLID_532_" class="st0" d="M98.2,135.2L98.2,135.2c-7,0-12.7-5.7-12.7-12.7V77.7c0-7,5.7-12.7,12.7-12.7h0
		c7,0,12.7,5.7,12.7,12.7v44.8C110.9,129.5,105.2,135.2,98.2,135.2z"/>
	<path id="XMLID_531_" class="st0" d="M123.6,164.9L123.6,164.9c-7,0-12.7-5.7-12.7-12.7v-124c0-7,5.7-12.7,12.7-12.7h0
		c7,0,12.7,5.7,12.7,12.7v124C136.3,159.2,130.6,164.9,123.6,164.9z"/>
	<path id="XMLID_530_" class="st0" d="M149,283L149,283c-7,0-12.7-5.7-12.7-12.7V43.4c0-7,5.7-12.7,12.7-12.7h0
		c7,0,12.7,5.7,12.7,12.7v226.9C161.7,277.3,156,283,149,283z"/>
	<path id="XMLID_529_" class="st0" d="M199.8,135.2L199.8,135.2c-7,0-12.7-5.7-12.7-12.7V77.7c0-7,5.7-12.7,12.7-12.7h0
		c7,0,12.7,5.7,12.7,12.7v44.8C212.5,129.5,206.8,135.2,199.8,135.2z"/>
	<path id="XMLID_528_" class="st0" d="M174.4,164.9L174.4,164.9c-7,0-12.7-5.7-12.7-12.7V22.7c0-7,5.7-12.7,12.7-12.7h0
		c7,0,12.7,5.7,12.7,12.7v129.5C187.1,159.2,181.4,164.9,174.4,164.9z"/>
	<path id="XMLID_527_" class="st0" d="M225.3,283L225.3,283c-7,0-12.7-5.7-12.7-12.7v-45.2c0-7,5.7-12.7,12.7-12.7h0
		c7,0,12.7,5.7,12.7,12.7v45.2C237.9,277.3,232.2,283,225.3,283z"/>
	<path id="XMLID_526_" class="st0" d="M250.6,167.7L250.6,167.7c-7,0-12.7-5.7-12.7-12.7V82.1c0-7,5.7-12.7,12.7-12.7h0
		c7,0,12.7,5.7,12.7,12.7V155C263.3,162,257.6,167.7,250.6,167.7z"/>
	<path id="XMLID_525_" class="st0" d="M46.4,169.1L46.4,169.1c-7,0-12.7-5.7-12.7-12.7V83.5c0-7,5.7-12.7,12.7-12.7h0
		c7,0,12.7,5.7,12.7,12.7v72.8C59.1,163.4,53.4,169.1,46.4,169.1z"/>
	<path id="XMLID_518_" class="st0" d="M54.8,203L54.8,203c-7,0-12.7-5.7-12.7-12.7v0c0-7,5.7-12.7,12.7-12.7h0
		c7,0,12.7,5.7,12.7,12.7v0C67.5,197.3,61.8,203,54.8,203z"/>
	<path id="XMLID_517_" class="st0" d="M23.6,237.2L23.6,237.2c-7,0-12.7-5.7-12.7-12.7v0c0-7,5.7-12.7,12.7-12.7h0
		c7,0,12.7,5.7,12.7,12.7v0C36.3,231.5,30.5,237.2,23.6,237.2z"/>
	<path id="XMLID_561_" class="st0" d="M98.2,203L98.2,203c-7,0-12.7-5.7-12.7-12.7v0c0-7,5.7-12.7,12.7-12.7h0
		c7,0,12.7,5.7,12.7,12.7v0C110.9,197.3,105.2,203,98.2,203z"/>
	<path id="XMLID_522_" class="st0" d="M199.8,203L199.8,203c-7,0-12.7-5.7-12.7-12.7v0c0-7,5.7-12.7,12.7-12.7h0
		c7,0,12.7,5.7,12.7,12.7v0c0,4.5-2.4,8.5-5.9,10.7C204.6,202.3,202.3,203,199.8,203z"/>
	<path id="XMLID_520_" class="st0" d="M243.8,203L243.8,203c-7,0-12.7-5.7-12.7-12.7v0c0-7,5.7-12.7,12.7-12.7h0
		c7,0,12.7,5.7,12.7,12.7v0C256.5,197.3,250.8,203,243.8,203z"/>
	<path id="XMLID_523_" class="st0" d="M274.5,237.2L274.5,237.2c-7,0-12.7-5.7-12.7-12.7v0c0-7,5.7-12.7,12.7-12.7h0
		c7,0,12.7,5.7,12.7,12.7v0C287.2,231.5,281.4,237.2,274.5,237.2z"/>
</g>
</svg>
