<?xml version="1.0" encoding="utf-8"?>
<!-- Generator: Adobe Illustrator 19.0.0, SVG Export Plug-In . SVG Version: 6.00 Build 0)  -->
<svg version="1.1" id="Layer_1" xmlns="http://www.w3.org/2000/svg" xmlns:xlink="http://www.w3.org/1999/xlink" x="0px" y="0px"
	 viewBox="0 0 300 300" style="enable-background:new 0 0 300 300;" xml:space="preserve">
<style type="text/css">
	.st0{fill:url(#XMLID_139_);stroke:url(#XMLID_140_);stroke-miterlimit:10;}
	.st1{fill:url(#XMLID_141_);stroke:url(#XMLID_142_);stroke-miterlimit:10;}
	.st2{fill:url(#XMLID_143_);stroke:url(#XMLID_144_);stroke-miterlimit:10;}
	.st3{fill:url(#XMLID_145_);stroke:url(#XMLID_146_);stroke-miterlimit:10;}
	.st4{fill:url(#XMLID_147_);stroke:url(#XMLID_148_);stroke-miterlimit:10;}
	.st5{fill:url(#XMLID_149_);stroke:url(#XMLID_150_);stroke-miterlimit:10;}
	.st6{fill:url(#XMLID_151_);stroke:url(#XMLID_152_);stroke-miterlimit:10;}
	.st7{fill:url(#XMLID_153_);stroke:url(#XMLID_154_);stroke-miterlimit:10;}
	.st8{fill:url(#XMLID_172_);stroke:url(#XMLID_173_);stroke-miterlimit:10;}
	.st9{fill:#D30024;}
</style>
<g id="XMLID_51_">
	<linearGradient id="XMLID_139_" gradientUnits="userSpaceOnUse" x1="73.809" y1="51.3122" x2="73.809" y2="191.4969">
		<stop  offset="0" style="stop-color:#D30024"/>
		<stop  offset="1" style="stop-color:#D30088"/>
	</linearGradient>
	<linearGradient id="XMLID_140_" gradientUnits="userSpaceOnUse" x1="60.6105" y1="121.4046" x2="87.0075" y2="121.4046">
		<stop  offset="0" style="stop-color:#D30024"/>
		<stop  offset="1" style="stop-color:#D30088"/>
	</linearGradient>
	<path id="XMLID_60_" class="st0" d="M73.8,191.5L73.8,191.5c-7,0-12.7-5.7-12.7-12.7V64c0-7,5.7-12.7,12.7-12.7h0
		c7,0,12.7,5.7,12.7,12.7v114.8C86.5,185.8,80.8,191.5,73.8,191.5z"/>
	<linearGradient id="XMLID_141_" gradientUnits="userSpaceOnUse" x1="99.206" y1="224.5492" x2="99.206" y2="33.1006">
		<stop  offset="0" style="stop-color:#D30024"/>
		<stop  offset="1" style="stop-color:#D30088"/>
	</linearGradient>
	<linearGradient id="XMLID_142_" gradientUnits="userSpaceOnUse" x1="86.0075" y1="128.8249" x2="112.4045" y2="128.8249">
		<stop  offset="0" style="stop-color:#D30024"/>
		<stop  offset="1" style="stop-color:#D30088"/>
	</linearGradient>
	<path id="XMLID_59_" class="st1" d="M99.2,224.5L99.2,224.5c-7,0-12.7-5.7-12.7-12.7V45.8c0-7,5.7-12.7,12.7-12.7h0
		c7,0,12.7,5.7,12.7,12.7v166.1C111.9,218.8,106.2,224.5,99.2,224.5z"/>
	<linearGradient id="XMLID_143_" gradientUnits="userSpaceOnUse" x1="124.603" y1="42.0953" x2="124.603" y2="249.264">
		<stop  offset="0" style="stop-color:#D30024"/>
		<stop  offset="1" style="stop-color:#D30088"/>
	</linearGradient>
	<linearGradient id="XMLID_144_" gradientUnits="userSpaceOnUse" x1="111.4045" y1="145.6796" x2="137.8015" y2="145.6796">
		<stop  offset="0" style="stop-color:#D30024"/>
		<stop  offset="1" style="stop-color:#D30088"/>
	</linearGradient>
	<path id="XMLID_58_" class="st2" d="M124.6,249.3L124.6,249.3c-7,0-12.7-5.7-12.7-12.7V54.8c0-7,5.7-12.7,12.7-12.7h0
		c7,0,12.7,5.7,12.7,12.7v181.8C137.3,243.5,131.6,249.3,124.6,249.3z"/>
	<linearGradient id="XMLID_145_" gradientUnits="userSpaceOnUse" x1="150" y1="270.2833" x2="150" y2="81.7778">
		<stop  offset="0" style="stop-color:#D30024"/>
		<stop  offset="1" style="stop-color:#D30088"/>
	</linearGradient>
	<linearGradient id="XMLID_146_" gradientUnits="userSpaceOnUse" x1="136.8015" y1="176.0306" x2="163.1985" y2="176.0306">
		<stop  offset="0" style="stop-color:#D30024"/>
		<stop  offset="1" style="stop-color:#D30088"/>
	</linearGradient>
	<path id="XMLID_57_" class="st3" d="M150,270.3L150,270.3c-7,0-12.7-5.7-12.7-12.7V94.5c0-7,5.7-12.7,12.7-12.7h0
		c7,0,12.7,5.7,12.7,12.7v163.1C162.7,264.6,157,270.3,150,270.3z"/>
	<linearGradient id="XMLID_147_" gradientUnits="userSpaceOnUse" x1="200.794" y1="224.5492" x2="200.794" y2="33.1006">
		<stop  offset="0" style="stop-color:#D30024"/>
		<stop  offset="1" style="stop-color:#D30088"/>
	</linearGradient>
	<linearGradient id="XMLID_148_" gradientUnits="userSpaceOnUse" x1="187.5955" y1="128.8249" x2="213.9925" y2="128.8249">
		<stop  offset="0" style="stop-color:#D30024"/>
		<stop  offset="1" style="stop-color:#D30088"/>
	</linearGradient>
	<path id="XMLID_56_" class="st4" d="M200.8,224.5L200.8,224.5c-7,0-12.7-5.7-12.7-12.7V45.8c0-7,5.7-12.7,12.7-12.7h0
		c7,0,12.7,5.7,12.7,12.7v166.1C213.5,218.8,207.8,224.5,200.8,224.5z"/>
	<linearGradient id="XMLID_149_" gradientUnits="userSpaceOnUse" x1="175.397" y1="42.0953" x2="175.397" y2="249.264">
		<stop  offset="0" style="stop-color:#D30024"/>
		<stop  offset="1" style="stop-color:#D30088"/>
	</linearGradient>
	<linearGradient id="XMLID_150_" gradientUnits="userSpaceOnUse" x1="162.1985" y1="145.6796" x2="188.5955" y2="145.6796">
		<stop  offset="0" style="stop-color:#D30024"/>
		<stop  offset="1" style="stop-color:#D30088"/>
	</linearGradient>
	<path id="XMLID_55_" class="st5" d="M175.4,249.3L175.4,249.3c-7,0-12.7-5.7-12.7-12.7V54.8c0-7,5.7-12.7,12.7-12.7h0
		c7,0,12.7,5.7,12.7,12.7v181.8C188.1,243.5,182.4,249.3,175.4,249.3z"/>
	<linearGradient id="XMLID_151_" gradientUnits="userSpaceOnUse" x1="226.191" y1="51.3122" x2="226.191" y2="191.4969">
		<stop  offset="0" style="stop-color:#D30024"/>
		<stop  offset="1" style="stop-color:#D30088"/>
	</linearGradient>
	<linearGradient id="XMLID_152_" gradientUnits="userSpaceOnUse" x1="212.9925" y1="121.4046" x2="239.3895" y2="121.4046">
		<stop  offset="0" style="stop-color:#D30024"/>
		<stop  offset="1" style="stop-color:#D30088"/>
	</linearGradient>
	<path id="XMLID_54_" class="st6" d="M226.2,191.5L226.2,191.5c-7,0-12.7-5.7-12.7-12.7V64c0-7,5.7-12.7,12.7-12.7h0
		c7,0,12.7,5.7,12.7,12.7v114.8C238.9,185.8,233.2,191.5,226.2,191.5z"/>
	<linearGradient id="XMLID_153_" gradientUnits="userSpaceOnUse" x1="251.588" y1="158.1574" x2="251.588" y2="81.7778">
		<stop  offset="0" style="stop-color:#D30024"/>
		<stop  offset="1" style="stop-color:#D30088"/>
	</linearGradient>
	<linearGradient id="XMLID_154_" gradientUnits="userSpaceOnUse" x1="238.3895" y1="119.9676" x2="264.7865" y2="119.9676">
		<stop  offset="0" style="stop-color:#D30024"/>
		<stop  offset="1" style="stop-color:#D30088"/>
	</linearGradient>
	<path id="XMLID_53_" class="st7" d="M251.6,158.2L251.6,158.2c-7,0-12.7-5.7-12.7-12.7v-51c0-7,5.7-12.7,12.7-12.7h0
		c7,0,12.7,5.7,12.7,12.7v51C264.3,152.4,258.6,158.2,251.6,158.2z"/>
	<linearGradient id="XMLID_172_" gradientUnits="userSpaceOnUse" x1="48.412" y1="159.5944" x2="48.412" y2="83.2148">
		<stop  offset="0" style="stop-color:#D30024"/>
		<stop  offset="1" style="stop-color:#D30088"/>
	</linearGradient>
	<linearGradient id="XMLID_173_" gradientUnits="userSpaceOnUse" x1="35.2135" y1="121.4046" x2="61.6105" y2="121.4046">
		<stop  offset="0" style="stop-color:#D30024"/>
		<stop  offset="1" style="stop-color:#D30088"/>
	</linearGradient>
	<path id="XMLID_52_" class="st8" d="M48.4,159.6L48.4,159.6c-7,0-12.7-5.7-12.7-12.7v-51c0-7,5.7-12.7,12.7-12.7h0
		c7,0,12.7,5.7,12.7,12.7v51C61.1,153.9,55.4,159.6,48.4,159.6z"/>
</g>
<path id="XMLID_74_" class="st9" d="M281.1,86.7L281.1,86.7c-7,0-12.7-5.7-12.7-12.7v0c0-7,5.7-12.7,12.7-12.7h0
	c7,0,12.7,5.7,12.7,12.7v0C293.8,81,288.1,86.7,281.1,86.7z"/>
<path id="XMLID_75_" class="st9" d="M226.2,33.1L226.2,33.1c-7,0-12.7-5.7-12.7-12.7v0c0-7,5.7-12.7,12.7-12.7h0
	c7,0,12.7,5.7,12.7,12.7v0C238.9,27.4,233.2,33.1,226.2,33.1z"/>
<path id="XMLID_76_" class="st9" d="M277,33.1L277,33.1c-7,0-12.7-5.7-12.7-12.7v0c0-7,5.7-12.7,12.7-12.7h0c7,0,12.7,5.7,12.7,12.7
	v0C289.7,27.4,284,33.1,277,33.1z"/>
<path id="XMLID_77_" class="st9" d="M43.4,62.3L43.4,62.3c-7,0-12.7-5.7-12.7-12.7v0c0-7,5.7-12.7,12.7-12.7h0
	c7,0,12.7,5.7,12.7,12.7v0C56.1,56.6,50.4,62.3,43.4,62.3z"/>
<path id="XMLID_78_" class="st9" d="M18,86.7L18,86.7C11,86.7,5.3,81,5.3,74v0c0-7,5.7-12.7,12.7-12.7h0c7,0,12.7,5.7,12.7,12.7v0
	C30.7,81,25,86.7,18,86.7z"/>
<path id="XMLID_79_" class="st9" d="M238.9,243.2L238.9,243.2c-7,0-12.7-5.7-12.7-12.7v0c0-7,5.7-12.7,12.7-12.7h0
	c7,0,12.7,5.7,12.7,12.7v0C251.6,237.5,245.9,243.2,238.9,243.2z"/>
</svg>
