<?xml version="1.0" encoding="utf-8"?>
<!-- Generator: Adobe Illustrator 19.0.0, SVG Export Plug-In . SVG Version: 6.00 Build 0)  -->
<svg version="1.1" id="Layer_1" xmlns="http://www.w3.org/2000/svg" xmlns:xlink="http://www.w3.org/1999/xlink" x="0px" y="0px"
	 viewBox="0 0 300 300" style="enable-background:new 0 0 300 300;" xml:space="preserve">
<style type="text/css">
	.st0{fill:#D30024;stroke:#FFFFFF;stroke-width:2;stroke-miterlimit:10;}
	.st1{fill:url(#XMLID_25_);stroke:url(#XMLID_26_);stroke-miterlimit:10;}
	.st2{fill:url(#XMLID_27_);stroke:url(#XMLID_28_);stroke-miterlimit:10;}
	.st3{fill:url(#XMLID_29_);stroke:url(#XMLID_30_);stroke-miterlimit:10;}
	.st4{fill:url(#XMLID_31_);stroke:url(#XMLID_32_);stroke-miterlimit:10;}
	.st5{fill:url(#XMLID_33_);stroke:url(#XMLID_34_);stroke-miterlimit:10;}
	.st6{fill:url(#XMLID_35_);stroke:url(#XMLID_36_);stroke-miterlimit:10;}
	.st7{fill:url(#XMLID_37_);stroke:url(#XMLID_38_);stroke-miterlimit:10;}
	.st8{fill:url(#XMLID_39_);stroke:url(#XMLID_40_);stroke-miterlimit:10;}
	.st9{fill:url(#XMLID_41_);stroke:url(#XMLID_42_);stroke-miterlimit:10;}
	.st10{fill:#D30024;}
	.st11{fill:#D30088;stroke:#D30024;stroke-width:4;stroke-miterlimit:10;}
	.st12{fill:#D30088;stroke:#FFFFFF;stroke-width:2;stroke-miterlimit:10;}
	.st13{fill:none;stroke:#D30024;stroke-width:2;stroke-miterlimit:10;}
</style>
<g id="XMLID_1_">
	<path id="XMLID_2_" class="st0" d="M73.8,189.8L73.8,189.8c-7,0-12.7-5.7-12.7-12.7V62.3c0-7,5.7-12.7,12.7-12.7h0
		c7,0,12.7,5.7,12.7,12.7v114.8C86.5,184.1,80.8,189.8,73.8,189.8z"/>
	<path id="XMLID_3_" class="st0" d="M99.2,222.9L99.2,222.9c-7,0-12.7-5.7-12.7-12.7V44.1c0-7,5.7-12.7,12.7-12.7h0
		c7,0,12.7,5.7,12.7,12.7v166.1C111.9,217.1,106.2,222.9,99.2,222.9z"/>
	<path id="XMLID_4_" class="st0" d="M124.6,247.6L124.6,247.6c-7,0-12.7-5.7-12.7-12.7V53.1c0-7,5.7-12.7,12.7-12.7h0
		c7,0,12.7,5.7,12.7,12.7v181.8C137.3,241.9,131.6,247.6,124.6,247.6z"/>
	<path id="XMLID_5_" class="st0" d="M150,268.6L150,268.6c-7,0-12.7-5.7-12.7-12.7V92.8c0-7,5.7-12.7,12.7-12.7h0
		c7,0,12.7,5.7,12.7,12.7v163.1C162.7,262.9,157,268.6,150,268.6z"/>
	<path id="XMLID_6_" class="st0" d="M200.8,222.9L200.8,222.9c-7,0-12.7-5.7-12.7-12.7V44.1c0-7,5.7-12.7,12.7-12.7h0
		c7,0,12.7,5.7,12.7,12.7v166.1C213.5,217.1,207.8,222.9,200.8,222.9z"/>
	<path id="XMLID_7_" class="st0" d="M175.4,247.6L175.4,247.6c-7,0-12.7-5.7-12.7-12.7V53.1c0-7,5.7-12.7,12.7-12.7h0
		c7,0,12.7,5.7,12.7,12.7v181.8C188.1,241.9,182.4,247.6,175.4,247.6z"/>
	<path id="XMLID_8_" class="st0" d="M226.2,189.8L226.2,189.8c-7,0-12.7-5.7-12.7-12.7V62.3c0-7,5.7-12.7,12.7-12.7h0
		c7,0,12.7,5.7,12.7,12.7v114.8C238.9,184.1,233.2,189.8,226.2,189.8z"/>
	<path id="XMLID_9_" class="st0" d="M251.6,156.5L251.6,156.5c-7,0-12.7-5.7-12.7-12.7v-51c0-7,5.7-12.7,12.7-12.7h0
		c7,0,12.7,5.7,12.7,12.7v51C264.3,150.8,258.6,156.5,251.6,156.5z"/>
	<path id="XMLID_10_" class="st0" d="M48.4,157.9L48.4,157.9c-7,0-12.7-5.7-12.7-12.7v-51c0-7,5.7-12.7,12.7-12.7h0
		c7,0,12.7,5.7,12.7,12.7v51C61.1,152.2,55.4,157.9,48.4,157.9z"/>
</g>
<g id="XMLID_51_">
	<linearGradient id="XMLID_25_" gradientUnits="userSpaceOnUse" x1="393.809" y1="51.3122" x2="393.809" y2="191.4969">
		<stop  offset="0" style="stop-color:#D30024"/>
		<stop  offset="1" style="stop-color:#D30088"/>
	</linearGradient>
	<linearGradient id="XMLID_26_" gradientUnits="userSpaceOnUse" x1="380.6105" y1="121.4046" x2="407.0075" y2="121.4046">
		<stop  offset="0" style="stop-color:#D30024"/>
		<stop  offset="1" style="stop-color:#D30088"/>
	</linearGradient>
	<path id="XMLID_60_" class="st1" d="M393.8,191.5L393.8,191.5c-7,0-12.7-5.7-12.7-12.7V64c0-7,5.7-12.7,12.7-12.7h0
		c7,0,12.7,5.7,12.7,12.7v114.8C406.5,185.8,400.8,191.5,393.8,191.5z"/>
	<linearGradient id="XMLID_27_" gradientUnits="userSpaceOnUse" x1="419.206" y1="224.5492" x2="419.206" y2="33.1006">
		<stop  offset="0" style="stop-color:#D30024"/>
		<stop  offset="1" style="stop-color:#D30088"/>
	</linearGradient>
	<linearGradient id="XMLID_28_" gradientUnits="userSpaceOnUse" x1="406.0075" y1="128.8249" x2="432.4045" y2="128.8249">
		<stop  offset="0" style="stop-color:#D30024"/>
		<stop  offset="1" style="stop-color:#D30088"/>
	</linearGradient>
	<path id="XMLID_59_" class="st2" d="M419.2,224.5L419.2,224.5c-7,0-12.7-5.7-12.7-12.7V45.8c0-7,5.7-12.7,12.7-12.7h0
		c7,0,12.7,5.7,12.7,12.7v166.1C431.9,218.8,426.2,224.5,419.2,224.5z"/>
	<linearGradient id="XMLID_29_" gradientUnits="userSpaceOnUse" x1="444.603" y1="42.0953" x2="444.603" y2="249.264">
		<stop  offset="0" style="stop-color:#D30024"/>
		<stop  offset="1" style="stop-color:#D30088"/>
	</linearGradient>
	<linearGradient id="XMLID_30_" gradientUnits="userSpaceOnUse" x1="431.4045" y1="145.6796" x2="457.8015" y2="145.6796">
		<stop  offset="0" style="stop-color:#D30024"/>
		<stop  offset="1" style="stop-color:#D30088"/>
	</linearGradient>
	<path id="XMLID_58_" class="st3" d="M444.6,249.3L444.6,249.3c-7,0-12.7-5.7-12.7-12.7V54.8c0-7,5.7-12.7,12.7-12.7h0
		c7,0,12.7,5.7,12.7,12.7v181.8C457.3,243.5,451.6,249.3,444.6,249.3z"/>
	<linearGradient id="XMLID_31_" gradientUnits="userSpaceOnUse" x1="470" y1="270.2833" x2="470" y2="81.7778">
		<stop  offset="0" style="stop-color:#D30024"/>
		<stop  offset="1" style="stop-color:#D30088"/>
	</linearGradient>
	<linearGradient id="XMLID_32_" gradientUnits="userSpaceOnUse" x1="456.8015" y1="176.0306" x2="483.1985" y2="176.0306">
		<stop  offset="0" style="stop-color:#D30024"/>
		<stop  offset="1" style="stop-color:#D30088"/>
	</linearGradient>
	<path id="XMLID_57_" class="st4" d="M470,270.3L470,270.3c-7,0-12.7-5.7-12.7-12.7V94.5c0-7,5.7-12.7,12.7-12.7h0
		c7,0,12.7,5.7,12.7,12.7v163.1C482.7,264.6,477,270.3,470,270.3z"/>
	<linearGradient id="XMLID_33_" gradientUnits="userSpaceOnUse" x1="520.794" y1="224.5492" x2="520.794" y2="33.1006">
		<stop  offset="0" style="stop-color:#D30024"/>
		<stop  offset="1" style="stop-color:#D30088"/>
	</linearGradient>
	<linearGradient id="XMLID_34_" gradientUnits="userSpaceOnUse" x1="507.5955" y1="128.8249" x2="533.9925" y2="128.8249">
		<stop  offset="0" style="stop-color:#D30024"/>
		<stop  offset="1" style="stop-color:#D30088"/>
	</linearGradient>
	<path id="XMLID_56_" class="st5" d="M520.8,224.5L520.8,224.5c-7,0-12.7-5.7-12.7-12.7V45.8c0-7,5.7-12.7,12.7-12.7h0
		c7,0,12.7,5.7,12.7,12.7v166.1C533.5,218.8,527.8,224.5,520.8,224.5z"/>
	<linearGradient id="XMLID_35_" gradientUnits="userSpaceOnUse" x1="495.397" y1="42.0953" x2="495.397" y2="249.264">
		<stop  offset="0" style="stop-color:#D30024"/>
		<stop  offset="1" style="stop-color:#D30088"/>
	</linearGradient>
	<linearGradient id="XMLID_36_" gradientUnits="userSpaceOnUse" x1="482.1985" y1="145.6796" x2="508.5955" y2="145.6796">
		<stop  offset="0" style="stop-color:#D30024"/>
		<stop  offset="1" style="stop-color:#D30088"/>
	</linearGradient>
	<path id="XMLID_55_" class="st6" d="M495.4,249.3L495.4,249.3c-7,0-12.7-5.7-12.7-12.7V54.8c0-7,5.7-12.7,12.7-12.7h0
		c7,0,12.7,5.7,12.7,12.7v181.8C508.1,243.5,502.4,249.3,495.4,249.3z"/>
	<linearGradient id="XMLID_37_" gradientUnits="userSpaceOnUse" x1="546.191" y1="51.3122" x2="546.191" y2="191.4969">
		<stop  offset="0" style="stop-color:#D30024"/>
		<stop  offset="1" style="stop-color:#D30088"/>
	</linearGradient>
	<linearGradient id="XMLID_38_" gradientUnits="userSpaceOnUse" x1="532.9925" y1="121.4046" x2="559.3895" y2="121.4046">
		<stop  offset="0" style="stop-color:#D30024"/>
		<stop  offset="1" style="stop-color:#D30088"/>
	</linearGradient>
	<path id="XMLID_54_" class="st7" d="M546.2,191.5L546.2,191.5c-7,0-12.7-5.7-12.7-12.7V64c0-7,5.7-12.7,12.7-12.7l0,0
		c7,0,12.7,5.7,12.7,12.7v114.8C558.9,185.8,553.2,191.5,546.2,191.5z"/>
	<linearGradient id="XMLID_39_" gradientUnits="userSpaceOnUse" x1="571.588" y1="158.1574" x2="571.588" y2="81.7778">
		<stop  offset="0" style="stop-color:#D30024"/>
		<stop  offset="1" style="stop-color:#D30088"/>
	</linearGradient>
	<linearGradient id="XMLID_40_" gradientUnits="userSpaceOnUse" x1="558.3895" y1="119.9676" x2="584.7865" y2="119.9676">
		<stop  offset="0" style="stop-color:#D30024"/>
		<stop  offset="1" style="stop-color:#D30088"/>
	</linearGradient>
	<path id="XMLID_53_" class="st8" d="M571.6,158.2L571.6,158.2c-7,0-12.7-5.7-12.7-12.7v-51c0-7,5.7-12.7,12.7-12.7h0
		c7,0,12.7,5.7,12.7,12.7v51C584.3,152.4,578.6,158.2,571.6,158.2z"/>
	<linearGradient id="XMLID_41_" gradientUnits="userSpaceOnUse" x1="368.412" y1="159.5944" x2="368.412" y2="83.2148">
		<stop  offset="0" style="stop-color:#D30024"/>
		<stop  offset="1" style="stop-color:#D30088"/>
	</linearGradient>
	<linearGradient id="XMLID_42_" gradientUnits="userSpaceOnUse" x1="355.2135" y1="121.4046" x2="381.6105" y2="121.4046">
		<stop  offset="0" style="stop-color:#D30024"/>
		<stop  offset="1" style="stop-color:#D30088"/>
	</linearGradient>
	<path id="XMLID_52_" class="st9" d="M368.4,159.6L368.4,159.6c-7,0-12.7-5.7-12.7-12.7v-51c0-7,5.7-12.7,12.7-12.7h0
		c7,0,12.7,5.7,12.7,12.7v51C381.1,153.9,375.4,159.6,368.4,159.6z"/>
</g>
<path id="XMLID_74_" class="st10" d="M601.1,86.7L601.1,86.7c-7,0-12.7-5.7-12.7-12.7v0c0-7,5.7-12.7,12.7-12.7h0
	c7,0,12.7,5.7,12.7,12.7v0C613.8,81,608.1,86.7,601.1,86.7z"/>
<path id="XMLID_75_" class="st10" d="M546.2,33.1L546.2,33.1c-7,0-12.7-5.7-12.7-12.7v0c0-7,5.7-12.7,12.7-12.7l0,0
	c7,0,12.7,5.7,12.7,12.7v0C558.9,27.4,553.2,33.1,546.2,33.1z"/>
<path id="XMLID_76_" class="st10" d="M597,33.1L597,33.1c-7,0-12.7-5.7-12.7-12.7v0c0-7,5.7-12.7,12.7-12.7h0
	c7,0,12.7,5.7,12.7,12.7v0C609.7,27.4,604,33.1,597,33.1z"/>
<path id="XMLID_77_" class="st10" d="M363.4,62.3L363.4,62.3c-7,0-12.7-5.7-12.7-12.7v0c0-7,5.7-12.7,12.7-12.7h0
	c7,0,12.7,5.7,12.7,12.7v0C376.1,56.6,370.4,62.3,363.4,62.3z"/>
<path id="XMLID_78_" class="st10" d="M338,86.7L338,86.7c-7,0-12.7-5.7-12.7-12.7v0c0-7,5.7-12.7,12.7-12.7h0
	c7,0,12.7,5.7,12.7,12.7v0C350.7,81,345,86.7,338,86.7z"/>
<path id="XMLID_79_" class="st10" d="M558.9,243.2L558.9,243.2c-7,0-12.7-5.7-12.7-12.7v0c0-7,5.7-12.7,12.7-12.7h0
	c7,0,12.7,5.7,12.7,12.7v0C571.6,237.5,565.9,243.2,558.9,243.2z"/>
<g id="XMLID_184_">
	<path id="XMLID_193_" class="st11" d="M713.8,189.8L713.8,189.8c-7,0-12.7-5.7-12.7-12.7V62.3c0-7,5.7-12.7,12.7-12.7l0,0
		c7,0,12.7,5.7,12.7,12.7v114.8C726.5,184.1,720.8,189.8,713.8,189.8z"/>
	<path id="XMLID_192_" class="st11" d="M739.2,222.9L739.2,222.9c-7,0-12.7-5.7-12.7-12.7V44.1c0-7,5.7-12.7,12.7-12.7h0
		c7,0,12.7,5.7,12.7,12.7v166.1C751.9,217.1,746.2,222.9,739.2,222.9z"/>
	<path id="XMLID_191_" class="st11" d="M764.6,247.6L764.6,247.6c-7,0-12.7-5.7-12.7-12.7V53.1c0-7,5.7-12.7,12.7-12.7l0,0
		c7,0,12.7,5.7,12.7,12.7v181.8C777.3,241.9,771.6,247.6,764.6,247.6z"/>
	<path id="XMLID_190_" class="st11" d="M790,268.6L790,268.6c-7,0-12.7-5.7-12.7-12.7V92.8c0-7,5.7-12.7,12.7-12.7h0
		c7,0,12.7,5.7,12.7,12.7v163.1C802.7,262.9,797,268.6,790,268.6z"/>
	<path id="XMLID_189_" class="st11" d="M840.8,222.9L840.8,222.9c-7,0-12.7-5.7-12.7-12.7V44.1c0-7,5.7-12.7,12.7-12.7h0
		c7,0,12.7,5.7,12.7,12.7v166.1C853.5,217.1,847.8,222.9,840.8,222.9z"/>
	<path id="XMLID_188_" class="st11" d="M815.4,247.6L815.4,247.6c-7,0-12.7-5.7-12.7-12.7V53.1c0-7,5.7-12.7,12.7-12.7l0,0
		c7,0,12.7,5.7,12.7,12.7v181.8C828.1,241.9,822.4,247.6,815.4,247.6z"/>
	<path id="XMLID_187_" class="st11" d="M866.2,189.8L866.2,189.8c-7,0-12.7-5.7-12.7-12.7V62.3c0-7,5.7-12.7,12.7-12.7l0,0
		c7,0,12.7,5.7,12.7,12.7v114.8C878.9,184.1,873.2,189.8,866.2,189.8z"/>
	<path id="XMLID_186_" class="st11" d="M891.6,156.5L891.6,156.5c-7,0-12.7-5.7-12.7-12.7v-51c0-7,5.7-12.7,12.7-12.7h0
		c7,0,12.7,5.7,12.7,12.7v51C904.3,150.8,898.6,156.5,891.6,156.5z"/>
	<path id="XMLID_185_" class="st11" d="M688.4,157.9L688.4,157.9c-7,0-12.7-5.7-12.7-12.7v-51c0-7,5.7-12.7,12.7-12.7h0
		c7,0,12.7,5.7,12.7,12.7v51C701.1,152.2,695.4,157.9,688.4,157.9z"/>
</g>
<path id="XMLID_220_" class="st12" d="M200.8,283L200.8,283c-7,0-12.7-5.7-12.7-12.7v0c0-7,5.7-12.7,12.7-12.7h0
	c7,0,12.7,5.7,12.7,12.7v0C213.5,277.3,207.8,283,200.8,283z"/>
<path id="XMLID_260_" class="st12" d="M230.4,243.2L230.4,243.2c-7,0-12.7-5.7-12.7-12.7v0c0-7,5.7-12.7,12.7-12.7h0
	c7,0,12.7,5.7,12.7,12.7v0C243.1,237.5,237.3,243.2,230.4,243.2z"/>
<path id="XMLID_261_" class="st12" d="M73.8,40.4L73.8,40.4c-7,0-12.7-5.7-12.7-12.7v0c0-7,5.7-12.7,12.7-12.7h0
	c7,0,12.7,5.7,12.7,12.7v0C86.5,34.7,80.8,40.4,73.8,40.4z"/>
<path id="XMLID_262_" class="st12" d="M18.4,132.4L18.4,132.4c-7,0-12.7-5.7-12.7-12.7v0c0-7,5.7-12.7,12.7-12.7h0
	c7,0,12.7,5.7,12.7,12.7v0C31.1,126.7,25.3,132.4,18.4,132.4z"/>
<path id="XMLID_263_" class="st12" d="M279.7,131L279.7,131c-7,0-12.7-5.7-12.7-12.7v0c0-7,5.7-12.7,12.7-12.7h0
	c7,0,12.7,5.7,12.7,12.7v0C292.4,125.3,286.7,131,279.7,131z"/>
<g id="XMLID_459_">
	<path id="XMLID_468_" class="st0" d="M1034,163.4L1034,163.4c-7,0-12.7-5.7-12.7-12.7V58.5c0-7,5.7-12.7,12.7-12.7l0,0
		c7,0,12.7,5.7,12.7,12.7v92.1C1046.7,157.6,1040.9,163.4,1034,163.4z"/>
	<path id="XMLID_467_" class="st0" d="M1059.4,213.9L1059.4,213.9c-7,0-12.7-5.7-12.7-12.7V73.8c0-7,5.7-12.7,12.7-12.7l0,0
		c7,0,12.7,5.7,12.7,12.7v127.3C1072.1,208.1,1066.3,213.9,1059.4,213.9z"/>
	<path id="XMLID_466_" class="st0" d="M1084.8,237.2L1084.8,237.2c-7,0-12.7-5.7-12.7-12.7V122.8c0-7,5.7-12.7,12.7-12.7h0
		c7,0,12.7,5.7,12.7,12.7v101.7C1097.5,231.4,1091.7,237.2,1084.8,237.2z"/>
	<path id="XMLID_465_" class="st0" d="M1110.2,265.5L1110.2,265.5c-7,0-12.7-5.7-12.7-12.7V138c0-7,5.7-12.7,12.7-12.7l0,0
		c7,0,12.7,5.7,12.7,12.7v114.8C1122.8,259.8,1117.1,265.5,1110.2,265.5z"/>
	<path id="XMLID_464_" class="st0" d="M1160.9,213.9L1160.9,213.9c-7,0-12.7-5.7-12.7-12.7V73.8c0-7,5.7-12.7,12.7-12.7l0,0
		c7,0,12.7,5.7,12.7,12.7v127.3C1173.6,208.1,1167.9,213.9,1160.9,213.9z"/>
	<path id="XMLID_463_" class="st0" d="M1135.5,237.2L1135.5,237.2c-7,0-12.7-5.7-12.7-12.7V117.3c0-7,5.7-12.7,12.7-12.7l0,0
		c7,0,12.7,5.7,12.7,12.7v107.2C1148.2,231.4,1142.5,237.2,1135.5,237.2z"/>
	<path id="XMLID_462_" class="st0" d="M1186.3,163.4L1186.3,163.4c-7,0-12.7-5.7-12.7-12.7V58.5c0-7,5.7-12.7,12.7-12.7h0
		c7,0,12.7,5.7,12.7,12.7v92.1C1199,157.6,1193.3,163.4,1186.3,163.4z"/>
	<path id="XMLID_461_" class="st0" d="M1211.7,170.5L1211.7,170.5c-7,0-12.7-5.7-12.7-12.7V85c0-7,5.7-12.7,12.7-12.7h0
		c7,0,12.7,5.7,12.7,12.7v72.8C1224.4,164.8,1218.7,170.5,1211.7,170.5z"/>
	<path id="XMLID_460_" class="st0" d="M1008.6,170.5L1008.6,170.5c-7,0-12.7-5.7-12.7-12.7V85c0-7,5.7-12.7,12.7-12.7h0
		c7,0,12.7,5.7,12.7,12.7v72.8C1021.3,164.8,1015.5,170.5,1008.6,170.5z"/>
	<path id="XMLID_482_" class="st13" d="M1031.9,255.2L1031.9,255.2c-7,0-12.7-5.7-12.7-12.7v0c0-7,5.7-12.7,12.7-12.7l0,0
		c7,0,12.7,5.7,12.7,12.7v0C1044.6,249.5,1038.9,255.2,1031.9,255.2z"/>
	<path id="XMLID_483_" class="st13" d="M1188.3,255.2L1188.3,255.2c-7,0-12.7-5.7-12.7-12.7v0c0-7,5.7-12.7,12.7-12.7h0
		c7,0,12.7,5.7,12.7,12.7v0C1201,249.5,1195.3,255.2,1188.3,255.2z"/>
	<path id="XMLID_484_" class="st13" d="M1008.6,203L1008.6,203c-7,0-12.7-5.7-12.7-12.7v0c0-7,5.7-12.7,12.7-12.7h0
		c7,0,12.7,5.7,12.7,12.7v0C1021.3,197.2,1015.5,203,1008.6,203z"/>
	<path id="XMLID_485_" class="st13" d="M1214.7,203L1214.7,203c-7,0-12.7-5.7-12.7-12.7v0c0-7,5.7-12.7,12.7-12.7h0
		c7,0,12.7,5.7,12.7,12.7v0C1227.4,197.2,1221.7,203,1214.7,203z"/>
	<path id="XMLID_487_" class="st13" d="M1188.3,284.9L1188.3,284.9c-7,0-12.7-5.7-12.7-12.7v0c0-7,5.7-12.7,12.7-12.7h0
		c7,0,12.7,5.7,12.7,12.7v0C1201,279.2,1195.3,284.9,1188.3,284.9z"/>
	<path id="XMLID_486_" class="st13" d="M1214.7,232.7L1214.7,232.7c-7,0-12.7-5.7-12.7-12.7v0c0-7,5.7-12.7,12.7-12.7h0
		c7,0,12.7,5.7,12.7,12.7v0C1227.4,227,1221.7,232.7,1214.7,232.7z"/>
	<path id="XMLID_489_" class="st13" d="M1030.9,284.9L1030.9,284.9c-7,0-12.7-5.7-12.7-12.7v0c0-7,5.7-12.7,12.7-12.7l0,0
		c7,0,12.7,5.7,12.7,12.7v0C1043.6,279.2,1037.9,284.9,1030.9,284.9z"/>
	<path id="XMLID_488_" class="st13" d="M1007.5,232.7L1007.5,232.7c-7,0-12.7-5.7-12.7-12.7v0c0-7,5.7-12.7,12.7-12.7l0,0
		c7,0,12.7,5.7,12.7,12.7v0C1020.2,227,1014.5,232.7,1007.5,232.7z"/>
</g>
<g id="XMLID_516_">
	<path id="XMLID_533_" class="st13" d="M1352.8,283L1352.8,283c-7,0-12.7-5.7-12.7-12.7v-45.2c0-7,5.7-12.7,12.7-12.7l0,0
		c7,0,12.7,5.7,12.7,12.7v45.2C1365.5,277.3,1359.8,283,1352.8,283z"/>
	<path id="XMLID_532_" class="st13" d="M1378.2,135.2L1378.2,135.2c-7,0-12.7-5.7-12.7-12.7V77.7c0-7,5.7-12.7,12.7-12.7l0,0
		c7,0,12.7,5.7,12.7,12.7v44.8C1390.9,129.5,1385.2,135.2,1378.2,135.2z"/>
	<path id="XMLID_531_" class="st13" d="M1403.6,164.9L1403.6,164.9c-7,0-12.7-5.7-12.7-12.7v-124c0-7,5.7-12.7,12.7-12.7h0
		c7,0,12.7,5.7,12.7,12.7v124C1416.3,159.2,1410.6,164.9,1403.6,164.9z"/>
	<path id="XMLID_530_" class="st13" d="M1429,283L1429,283c-7,0-12.7-5.7-12.7-12.7V43.4c0-7,5.7-12.7,12.7-12.7l0,0
		c7,0,12.7,5.7,12.7,12.7v226.9C1441.7,277.3,1436,283,1429,283z"/>
	<path id="XMLID_529_" class="st13" d="M1479.8,135.2L1479.8,135.2c-7,0-12.7-5.7-12.7-12.7V77.7c0-7,5.7-12.7,12.7-12.7l0,0
		c7,0,12.7,5.7,12.7,12.7v44.8C1492.5,129.5,1486.8,135.2,1479.8,135.2z"/>
	<path id="XMLID_528_" class="st13" d="M1454.4,164.9L1454.4,164.9c-7,0-12.7-5.7-12.7-12.7V22.7c0-7,5.7-12.7,12.7-12.7l0,0
		c7,0,12.7,5.7,12.7,12.7v129.5C1467.1,159.2,1461.4,164.9,1454.4,164.9z"/>
	<path id="XMLID_527_" class="st13" d="M1505.3,283L1505.3,283c-7,0-12.7-5.7-12.7-12.7v-45.2c0-7,5.7-12.7,12.7-12.7h0
		c7,0,12.7,5.7,12.7,12.7v45.2C1517.9,277.3,1512.2,283,1505.3,283z"/>
	<path id="XMLID_526_" class="st13" d="M1530.6,167.7L1530.6,167.7c-7,0-12.7-5.7-12.7-12.7V82.1c0-7,5.7-12.7,12.7-12.7h0
		c7,0,12.7,5.7,12.7,12.7V155C1543.3,162,1537.6,167.7,1530.6,167.7z"/>
	<path id="XMLID_525_" class="st13" d="M1326.4,169.1L1326.4,169.1c-7,0-12.7-5.7-12.7-12.7V83.5c0-7,5.7-12.7,12.7-12.7l0,0
		c7,0,12.7,5.7,12.7,12.7v72.8C1339.1,163.4,1333.4,169.1,1326.4,169.1z"/>
	<path id="XMLID_518_" class="st13" d="M1334.8,203L1334.8,203c-7,0-12.7-5.7-12.7-12.7v0c0-7,5.7-12.7,12.7-12.7l0,0
		c7,0,12.7,5.7,12.7,12.7v0C1347.5,197.3,1341.8,203,1334.8,203z"/>
	<path id="XMLID_517_" class="st13" d="M1303.6,237.2L1303.6,237.2c-7,0-12.7-5.7-12.7-12.7v0c0-7,5.7-12.7,12.7-12.7l0,0
		c7,0,12.7,5.7,12.7,12.7v0C1316.3,231.5,1310.5,237.2,1303.6,237.2z"/>
	<path id="XMLID_561_" class="st13" d="M1378.2,203L1378.2,203c-7,0-12.7-5.7-12.7-12.7v0c0-7,5.7-12.7,12.7-12.7l0,0
		c7,0,12.7,5.7,12.7,12.7v0C1390.9,197.3,1385.2,203,1378.2,203z"/>
	<path id="XMLID_522_" class="st13" d="M1479.8,203L1479.8,203c-7,0-12.7-5.7-12.7-12.7v0c0-7,5.7-12.7,12.7-12.7l0,0
		c7,0,12.7,5.7,12.7,12.7v0c0,4.5-2.4,8.5-5.9,10.7C1484.6,202.3,1482.3,203,1479.8,203z"/>
	<path id="XMLID_520_" class="st13" d="M1523.8,203L1523.8,203c-7,0-12.7-5.7-12.7-12.7v0c0-7,5.7-12.7,12.7-12.7l0,0
		c7,0,12.7,5.7,12.7,12.7v0C1536.5,197.3,1530.8,203,1523.8,203z"/>
	<path id="XMLID_523_" class="st13" d="M1554.5,237.2L1554.5,237.2c-7,0-12.7-5.7-12.7-12.7v0c0-7,5.7-12.7,12.7-12.7l0,0
		c7,0,12.7,5.7,12.7,12.7v0C1567.2,231.5,1561.4,237.2,1554.5,237.2z"/>
</g>
</svg>
