<?xml version="1.0" encoding="utf-8"?>
<!-- Generator: Adobe Illustrator 19.0.0, SVG Export Plug-In . SVG Version: 6.00 Build 0)  -->
<svg version="1.1" id="Layer_1" xmlns="http://www.w3.org/2000/svg" xmlns:xlink="http://www.w3.org/1999/xlink" x="0px" y="0px"
	 viewBox="0 0 300 300" style="enable-background:new 0 0 300 300;" xml:space="preserve">
<style type="text/css">
	.st0{fill:#D30024;stroke:#FFFFFF;stroke-width:2;stroke-miterlimit:10;}
	.st1{fill:none;stroke:#D30024;stroke-width:2;stroke-miterlimit:10;}
</style>
<g id="XMLID_459_">
	<path id="XMLID_468_" class="st0" d="M74,163.4L74,163.4c-7,0-12.7-5.7-12.7-12.7V58.5c0-7,5.7-12.7,12.7-12.7h0
		c7,0,12.7,5.7,12.7,12.7v92.1C86.7,157.6,80.9,163.4,74,163.4z"/>
	<path id="XMLID_467_" class="st0" d="M99.4,213.9L99.4,213.9c-7,0-12.7-5.7-12.7-12.7V73.8c0-7,5.7-12.7,12.7-12.7h0
		c7,0,12.7,5.7,12.7,12.7v127.3C112.1,208.1,106.3,213.9,99.4,213.9z"/>
	<path id="XMLID_466_" class="st0" d="M124.8,237.2L124.8,237.2c-7,0-12.7-5.7-12.7-12.7V122.8c0-7,5.7-12.7,12.7-12.7h0
		c7,0,12.7,5.7,12.7,12.7v101.7C137.5,231.4,131.7,237.2,124.8,237.2z"/>
	<path id="XMLID_465_" class="st0" d="M150.2,265.5L150.2,265.5c-7,0-12.7-5.7-12.7-12.7V138c0-7,5.7-12.7,12.7-12.7h0
		c7,0,12.7,5.7,12.7,12.7v114.8C162.8,259.8,157.1,265.5,150.2,265.5z"/>
	<path id="XMLID_464_" class="st0" d="M200.9,213.9L200.9,213.9c-7,0-12.7-5.7-12.7-12.7V73.8c0-7,5.7-12.7,12.7-12.7h0
		c7,0,12.7,5.7,12.7,12.7v127.3C213.6,208.1,207.9,213.9,200.9,213.9z"/>
	<path id="XMLID_463_" class="st0" d="M175.5,237.2L175.5,237.2c-7,0-12.7-5.7-12.7-12.7V117.3c0-7,5.7-12.7,12.7-12.7h0
		c7,0,12.7,5.7,12.7,12.7v107.2C188.2,231.4,182.5,237.2,175.5,237.2z"/>
	<path id="XMLID_462_" class="st0" d="M226.3,163.4L226.3,163.4c-7,0-12.7-5.7-12.7-12.7V58.5c0-7,5.7-12.7,12.7-12.7h0
		c7,0,12.7,5.7,12.7,12.7v92.1C239,157.6,233.3,163.4,226.3,163.4z"/>
	<path id="XMLID_461_" class="st0" d="M251.7,170.5L251.7,170.5c-7,0-12.7-5.7-12.7-12.7V85c0-7,5.7-12.7,12.7-12.7h0
		c7,0,12.7,5.7,12.7,12.7v72.8C264.4,164.8,258.7,170.5,251.7,170.5z"/>
	<path id="XMLID_460_" class="st0" d="M48.6,170.5L48.6,170.5c-7,0-12.7-5.7-12.7-12.7V85c0-7,5.7-12.7,12.7-12.7h0
		c7,0,12.7,5.7,12.7,12.7v72.8C61.3,164.8,55.5,170.5,48.6,170.5z"/>
	<path id="XMLID_482_" class="st1" d="M71.9,255.2L71.9,255.2c-7,0-12.7-5.7-12.7-12.7v0c0-7,5.7-12.7,12.7-12.7h0
		c7,0,12.7,5.7,12.7,12.7v0C84.6,249.5,78.9,255.2,71.9,255.2z"/>
	<path id="XMLID_483_" class="st1" d="M228.3,255.2L228.3,255.2c-7,0-12.7-5.7-12.7-12.7v0c0-7,5.7-12.7,12.7-12.7h0
		c7,0,12.7,5.7,12.7,12.7v0C241,249.5,235.3,255.2,228.3,255.2z"/>
	<path id="XMLID_484_" class="st1" d="M48.6,203L48.6,203c-7,0-12.7-5.7-12.7-12.7v0c0-7,5.7-12.7,12.7-12.7h0
		c7,0,12.7,5.7,12.7,12.7v0C61.3,197.2,55.5,203,48.6,203z"/>
	<path id="XMLID_485_" class="st1" d="M254.7,203L254.7,203c-7,0-12.7-5.7-12.7-12.7v0c0-7,5.7-12.7,12.7-12.7h0
		c7,0,12.7,5.7,12.7,12.7v0C267.4,197.2,261.7,203,254.7,203z"/>
	<path id="XMLID_487_" class="st1" d="M228.3,284.9L228.3,284.9c-7,0-12.7-5.7-12.7-12.7v0c0-7,5.7-12.7,12.7-12.7h0
		c7,0,12.7,5.7,12.7,12.7v0C241,279.2,235.3,284.9,228.3,284.9z"/>
	<path id="XMLID_486_" class="st1" d="M254.7,232.7L254.7,232.7c-7,0-12.7-5.7-12.7-12.7v0c0-7,5.7-12.7,12.7-12.7h0
		c7,0,12.7,5.7,12.7,12.7v0C267.4,227,261.7,232.7,254.7,232.7z"/>
	<path id="XMLID_489_" class="st1" d="M70.9,284.9L70.9,284.9c-7,0-12.7-5.7-12.7-12.7v0c0-7,5.7-12.7,12.7-12.7h0
		c7,0,12.7,5.7,12.7,12.7v0C83.6,279.2,77.9,284.9,70.9,284.9z"/>
	<path id="XMLID_488_" class="st1" d="M47.5,232.7L47.5,232.7c-7,0-12.7-5.7-12.7-12.7v0c0-7,5.7-12.7,12.7-12.7h0
		c7,0,12.7,5.7,12.7,12.7v0C60.2,227,54.5,232.7,47.5,232.7z"/>
</g>
</svg>
