<?xml version="1.0" encoding="utf-8"?>
<!-- Generator: Adobe Illustrator 20.1.0, SVG Export Plug-In . SVG Version: 6.00 Build 0)  -->
<svg version="1.1" id="Layer_1" xmlns="http://www.w3.org/2000/svg" xmlns:xlink="http://www.w3.org/1999/xlink" x="0px" y="0px"
	 viewBox="0 0 600 600" style="enable-background:new 0 0 600 600;" xml:space="preserve">
<style type="text/css">
	.st0{fill:url(#SVGID_1_);}
	.st1{fill:url(#SVGID_2_);}
	.st2{fill:url(#SVGID_3_);}
	.st3{fill:url(#SVGID_4_);}
	.st4{fill:#D4145A;}
</style>
<linearGradient id="SVGID_1_" gradientUnits="userSpaceOnUse" x1="599.8237" y1="108.0999" x2="197.3343" y2="108.0999">
	<stop  offset="0" style="stop-color:#D30024"/>
	<stop  offset="1" style="stop-color:#D30088"/>
</linearGradient>
<path class="st0" d="M524,183.9H273.2c-41.7,0-75.8-34.1-75.8-75.8v0c0-41.7,34.1-75.8,75.8-75.8H524c41.7,0,75.8,34.1,75.8,75.8v0
	C599.8,149.8,565.7,183.9,524,183.9z"/>
<linearGradient id="SVGID_2_" gradientUnits="userSpaceOnUse" x1="-0.1764" y1="335.6378" x2="394.845" y2="335.6378">
	<stop  offset="0" style="stop-color:#D30024"/>
	<stop  offset="1" style="stop-color:#D30088"/>
</linearGradient>
<path class="st1" d="M319,411.5H75.7c-41.7,0-75.8-34.1-75.8-75.8v0c0-41.7,34.1-75.8,75.8-75.8H319c41.7,0,75.8,34.1,75.8,75.8v0
	C394.8,377.4,360.7,411.5,319,411.5z"/>
<linearGradient id="SVGID_3_" gradientUnits="userSpaceOnUse" x1="-0.1764" y1="98.4061" x2="151.5156" y2="98.4061">
	<stop  offset="0" style="stop-color:#D30024"/>
	<stop  offset="1" style="stop-color:#D30088"/>
</linearGradient>
<circle class="st2" cx="75.7" cy="98.4" r="75.8"/>
<linearGradient id="SVGID_4_" gradientUnits="userSpaceOnUse" x1="599.8237" y1="335.6378" x2="448.1317" y2="335.6378">
	<stop  offset="0" style="stop-color:#D30024"/>
	<stop  offset="1" style="stop-color:#D30088"/>
</linearGradient>
<circle class="st3" cx="524" cy="335.6" r="75.8"/>
<g>
	<path class="st4" d="M55.9,462.4v13.6H24.5v17.9h24v13.1h-24v18.2h31.4v13.7H6.7v-76.5H55.9z"/>
	<path class="st4" d="M111.7,508.1c0.6,1.4,1.3,2.9,1.9,4.4c0.6-1.5,1.2-3,1.9-4.5c0.7-1.5,1.3-2.9,2-4.2l19.6-38.7
		c0.3-0.7,0.7-1.2,1.1-1.5c0.4-0.4,0.8-0.6,1.2-0.8s1-0.3,1.5-0.3c0.6,0,1.3,0,2,0h13.5v76.4h-15.6v-44c0-2.1,0.1-4.4,0.3-6.9
		l-20.3,39.3c-0.6,1.2-1.5,2.2-2.5,2.8s-2.3,0.9-3.6,0.9h-2.4c-1.4,0-2.6-0.3-3.6-0.9c-1.1-0.6-1.9-1.6-2.5-2.8l-20.4-39.4
		c0.1,1.2,0.2,2.4,0.3,3.6c0.1,1.2,0.1,2.3,0.1,3.3v44H70.5v-76.4h13.5c0.8,0,1.4,0,2,0s1.1,0.1,1.5,0.3c0.5,0.2,0.9,0.4,1.2,0.8
		c0.4,0.4,0.7,0.9,1.1,1.5l19.7,38.8C110.3,505.3,111,506.7,111.7,508.1z"/>
	<path class="st4" d="M249.1,500.6c0,5.5-1,10.7-2.9,15.4c-1.9,4.8-4.6,8.9-8.1,12.4s-7.6,6.3-12.5,8.3c-4.9,2-10.3,3-16.2,3
		c-6,0-11.4-1-16.3-3c-4.9-2-9.1-4.8-12.6-8.3s-6.2-7.7-8.1-12.4c-1.9-4.8-2.9-9.9-2.9-15.4c0-5.5,1-10.7,2.9-15.4s4.6-8.9,8.1-12.4
		c3.5-3.5,7.7-6.2,12.6-8.2c4.9-2,10.3-3,16.3-3c5.9,0,11.4,1,16.2,3c4.9,2,9.1,4.8,12.5,8.3s6.2,7.6,8.1,12.4
		C248.2,490,249.1,495.2,249.1,500.6z M231,500.6c0-3.8-0.5-7.2-1.5-10.2c-1-3-2.4-5.6-4.2-7.7c-1.8-2.1-4.1-3.7-6.7-4.8
		c-2.7-1.1-5.7-1.7-9.1-1.7c-3.4,0-6.5,0.6-9.2,1.7c-2.7,1.1-4.9,2.7-6.8,4.8c-1.8,2.1-3.2,4.7-4.2,7.7c-1,3-1.5,6.4-1.5,10.2
		c0,3.8,0.5,7.2,1.5,10.3c1,3,2.4,5.6,4.2,7.7c1.8,2.1,4.1,3.7,6.8,4.8c2.7,1.1,5.7,1.7,9.2,1.7c3.4,0,6.4-0.6,9.1-1.7
		c2.7-1.1,4.9-2.7,6.7-4.8c1.8-2.1,3.2-4.7,4.2-7.7C230.5,507.9,231,504.5,231,500.6z"/>
	<path class="st4" d="M314.5,462.4v14.1H293v62.4h-17.7v-62.4h-21.5v-14.1H314.5z"/>
	<path class="st4" d="M345.8,538.9H328v-76.5h17.8V538.9z"/>
	<path class="st4" d="M415.9,519.1c0.4,0,0.8,0.1,1.3,0.2c0.4,0.2,0.8,0.4,1.2,0.8l7,7.4c-3.1,4-6.9,7.1-11.6,9.1
		c-4.6,2-10.1,3.1-16.5,3.1c-5.8,0-11-1-15.6-3s-8.5-4.7-11.7-8.2c-3.2-3.5-5.7-7.6-7.4-12.4c-1.7-4.8-2.6-10-2.6-15.6
		c0-5.7,1-10.9,2.9-15.7c2-4.8,4.7-8.9,8.2-12.4c3.5-3.5,7.7-6.2,12.6-8.1c4.9-1.9,10.3-2.9,16.2-2.9c2.9,0,5.6,0.3,8.1,0.8
		c2.5,0.5,4.9,1.2,7.1,2.1c2.2,0.9,4.2,2,6.1,3.2c1.9,1.2,3.5,2.6,4.9,4.1l-6,8c-0.4,0.5-0.8,0.9-1.4,1.3c-0.5,0.4-1.3,0.6-2.2,0.6
		c-0.6,0-1.2-0.1-1.8-0.4c-0.6-0.3-1.2-0.6-1.8-1c-0.6-0.4-1.3-0.8-2.1-1.3c-0.8-0.5-1.6-0.9-2.7-1.3s-2.2-0.7-3.6-1
		c-1.4-0.3-3-0.4-4.9-0.4c-3.2,0-6.2,0.6-8.8,1.7c-2.7,1.1-4.9,2.8-6.9,4.9c-1.9,2.1-3.4,4.7-4.5,7.7c-1.1,3-1.6,6.4-1.6,10.1
		c0,3.9,0.5,7.4,1.6,10.4c1.1,3,2.5,5.6,4.4,7.7c1.8,2.1,4,3.7,6.4,4.8c2.4,1.1,5.1,1.6,7.9,1.6c1.6,0,3.1-0.1,4.4-0.2
		c1.3-0.2,2.6-0.4,3.7-0.8c1.1-0.4,2.2-0.9,3.3-1.5c1-0.6,2.1-1.4,3.1-2.3c0.4-0.3,0.9-0.6,1.4-0.9S415.4,519.1,415.9,519.1z"/>
	<path class="st4" d="M513.5,500.6c0,5.5-1,10.7-2.9,15.4c-1.9,4.8-4.6,8.9-8.1,12.4s-7.6,6.3-12.5,8.3c-4.9,2-10.3,3-16.2,3
		c-6,0-11.4-1-16.3-3c-4.9-2-9.1-4.8-12.6-8.3s-6.2-7.7-8.1-12.4c-1.9-4.8-2.9-9.9-2.9-15.4c0-5.5,1-10.7,2.9-15.4s4.6-8.9,8.1-12.4
		c3.5-3.5,7.7-6.2,12.6-8.2c4.9-2,10.3-3,16.3-3c5.9,0,11.4,1,16.2,3c4.9,2,9.1,4.8,12.5,8.3s6.2,7.6,8.1,12.4
		C512.6,490,513.5,495.2,513.5,500.6z M495.4,500.6c0-3.8-0.5-7.2-1.5-10.2c-1-3-2.4-5.6-4.2-7.7c-1.8-2.1-4.1-3.7-6.7-4.8
		c-2.7-1.1-5.7-1.7-9.1-1.7c-3.4,0-6.5,0.6-9.2,1.7c-2.7,1.1-4.9,2.7-6.8,4.8c-1.8,2.1-3.2,4.7-4.2,7.7c-1,3-1.5,6.4-1.5,10.2
		c0,3.8,0.5,7.2,1.5,10.3c1,3,2.4,5.6,4.2,7.7c1.8,2.1,4.1,3.7,6.8,4.8c2.7,1.1,5.7,1.7,9.2,1.7c3.4,0,6.4-0.6,9.1-1.7
		c2.7-1.1,4.9-2.7,6.7-4.8c1.8-2.1,3.2-4.7,4.2-7.7C494.9,507.9,495.4,504.5,495.4,500.6z"/>
	<path class="st4" d="M537.8,462.5c0.5,0.1,1,0.2,1.4,0.4c0.4,0.2,0.8,0.5,1.2,0.8c0.4,0.3,0.8,0.8,1.3,1.4l36.3,45.9
		c-0.1-1.5-0.2-2.9-0.3-4.3c-0.1-1.4-0.1-2.7-0.1-3.9v-40.5h15.6v76.5h-9.2c-1.4,0-2.5-0.2-3.5-0.6s-1.9-1.2-2.7-2.3l-36.1-45.6
		c0.1,1.3,0.2,2.6,0.3,3.9c0.1,1.3,0.1,2.5,0.1,3.6v41h-15.6v-76.5h9.3C536.7,462.4,537.3,462.5,537.8,462.5z"/>
</g>
</svg>
