<?xml version="1.0" encoding="utf-8"?>
<!-- Generator: Adobe Illustrator 19.0.0, SVG Export Plug-In . SVG Version: 6.00 Build 0)  -->
<svg version="1.1" id="Layer_1" xmlns="http://www.w3.org/2000/svg" xmlns:xlink="http://www.w3.org/1999/xlink" x="0px" y="0px"
	 viewBox="-382 85 600 435" style="enable-background:new -382 85 600 435;" xml:space="preserve">
<style type="text/css">
	.st0{fill:url(#SVGID_1_);}
	.st1{fill:url(#SVGID_2_);}
	.st2{fill:url(#SVGID_3_);}
	.st3{fill:url(#SVGID_4_);}
</style>
<linearGradient id="SVGID_1_" gradientUnits="userSpaceOnUse" x1="217.8" y1="578.9" x2="-184.6" y2="578.9" gradientTransform="matrix(1 0 0 -1 0 772)">
	<stop  offset="0" style="stop-color:#D30024"/>
	<stop  offset="1" style="stop-color:#D30088"/>
</linearGradient>
<path class="st0" d="M142,268.9h-250.8c-41.7,0-75.8-34.1-75.8-75.8l0,0c0-41.7,34.1-75.8,75.8-75.8H142c41.7,0,75.8,34.1,75.8,75.8
	l0,0C217.8,234.8,183.7,268.9,142,268.9z"/>
<linearGradient id="SVGID_2_" gradientUnits="userSpaceOnUse" x1="-382.1" y1="351.3" x2="12.8" y2="351.3" gradientTransform="matrix(1 0 0 -1 0 772)">
	<stop  offset="0" style="stop-color:#D30024"/>
	<stop  offset="1" style="stop-color:#D30088"/>
</linearGradient>
<path class="st1" d="M-63,496.5h-243.3c-41.7,0-75.8-34.1-75.8-75.8l0,0c0-41.7,34.1-75.8,75.8-75.8H-63c41.7,0,75.8,34.1,75.8,75.8
	l0,0C12.8,462.4-21.3,496.5-63,496.5z"/>
<linearGradient id="SVGID_3_" gradientUnits="userSpaceOnUse" x1="-382.1" y1="588.6" x2="-230.5" y2="588.6" gradientTransform="matrix(1 0 0 -1 0 772)">
	<stop  offset="0" style="stop-color:#D30024"/>
	<stop  offset="1" style="stop-color:#D30088"/>
</linearGradient>
<circle class="st2" cx="-306.3" cy="183.4" r="75.8"/>
<linearGradient id="SVGID_4_" gradientUnits="userSpaceOnUse" x1="217.8" y1="351.4" x2="66.2" y2="351.4" gradientTransform="matrix(1 0 0 -1 0 772)">
	<stop  offset="0" style="stop-color:#D30024"/>
	<stop  offset="1" style="stop-color:#D30088"/>
</linearGradient>
<circle class="st3" cx="142" cy="420.6" r="75.8"/>
</svg>
